<svg width="28" height="28" viewBox="0 0 28 28" fill="none" xmlns="http://www.w3.org/2000/svg">
<path d="M23.819 11.2565C24.2325 8.31442 22.1282 6.7328 19.2508 5.67764L20.1841 1.69217L17.9052 1.08758L16.9965 4.96804C16.3974 4.80912 15.7821 4.65919 15.1707 4.51063L16.0859 0.604596L13.8082 0L12.8742 3.9841C12.3783 3.86387 11.8915 3.74504 11.419 3.61997L11.4216 3.60754L8.27874 2.77215L7.67251 5.36327C7.67251 5.36327 9.36336 5.77575 9.32765 5.80134C10.2506 6.04662 10.4174 6.69684 10.3896 7.21226L9.32635 11.7526C9.38996 11.7699 9.47241 11.7948 9.56328 11.8335C9.48734 11.8134 9.4062 11.7913 9.32247 11.7699L7.83217 18.1303C7.71923 18.4287 7.433 18.8765 6.78781 18.7065C6.81053 18.7417 5.13136 18.2663 5.13136 18.2663L4 21.0433L6.96565 21.8303C7.51737 21.9775 8.05805 22.1316 8.59029 22.2767L7.6472 26.3078L9.92352 26.9124L10.8575 22.9241C11.4793 23.1038 12.083 23.2696 12.6736 23.4258L11.7429 27.3954L14.0218 28L14.9649 23.9765C18.851 24.7593 21.7731 24.4436 23.0031 20.702C23.9943 17.6894 22.9538 15.9516 20.9092 14.8185C22.3982 14.4529 23.5198 13.4103 23.819 11.2565ZM18.6121 19.0292C17.9078 22.0418 13.1429 20.4132 11.5981 20.0048L12.8496 14.6644C14.3944 15.0748 19.3482 15.8874 18.6121 19.0292ZM19.317 11.213C18.6744 13.9533 14.7085 12.5611 13.422 12.2197L14.5566 7.37608C15.8431 7.71742 19.9862 8.35448 19.317 11.213Z" fill="#F7931A"/>
</svg>
